# xmcd
#
# Track frame offsets:
#	150
#	19238
#	29671
#	43644
#	54587
#	65270
#	76547
#	98310
#	117117
#	133540
#	151786
#	173289
#	186896
#	201722
#	217184
#	234931
#	253688
#	274585
#	287883
#	301202
#	315732
#	327781
#	340935
#
# Disc length: 4722 seconds
#
# Revision: 0
# Processed by: cddbd v1.5.2PL0 Copyright (c) Steve Scherf et al.
# Submitted via: audiograbber 1.83.01
#
DISCID=3a127017
DTITLE=birgitta - first one
DYEAR=2007
DGENRE=pop
TTITLE0=All or nothing
TTITLE1=Bad moon rising
TTITLE2=Inget stoppar oss nu
TTITLE3=Stand by your man
TTITLE4=Stupid cupid
TTITLE5=Have you ever see the rain
TTITLE6=Anna och mig
TTITLE7=Delerium
TTITLE8=Hello
TTITLE9=I will survive
TTITLE10=Somliga gar i trasiga skor
TTITLE11=Hitching a ride
TTITLE12=Du e min man
TTITLE13=Aldrig ska jag sluta aelska dig
TTITLE14=Stumblin in
TTITLE15=60th medley
TTITLE16=I have a dream
TTITLE17=Vem foljer med vem
TTITLE18=Up around the bend
TTITLE19=Here we are
TTITLE20=You make me feel
TTITLE21=Love grows
TTITLE22=Idag och i morgon
EXTD=
EXTT0=
EXTT1=
EXTT2=
EXTT3=
EXTT4=
EXTT5=
EXTT6=
EXTT7=
EXTT8=
EXTT9=
EXTT10=
EXTT11=
EXTT12=
EXTT13=
EXTT14=
EXTT15=
EXTT16=
EXTT17=
EXTT18=
EXTT19=
EXTT20=
EXTT21=
EXTT22=
PLAYORDER=
